<svg width="1200" height="750" viewBox="0 0 1200 750" fill="none" xmlns="http://www.w3.org/2000/svg">
  <rect width="1200" height="750" rx="44" fill="#351408"/>
  <rect x="32" y="32" width="1136" height="686" rx="32" fill="url(#paint0_linear)"/>
  <circle cx="930" cy="166" r="120" fill="#FB923C" fill-opacity="0.22"/>
  <circle cx="270" cy="566" r="164" fill="#F59E0B" fill-opacity="0.15"/>
  <path d="M674 486C674 425.249 723.249 376 784 376H884C944.751 376 994 425.249 994 486V550H674V486Z" fill="#FDBA74"/>
  <path d="M694 550H974V590C974 617.614 951.614 640 924 640H744C716.386 640 694 617.614 694 590V550Z" fill="#EA580C"/>
  <circle cx="744" cy="584" r="14" fill="#FFF7ED"/>
  <circle cx="924" cy="584" r="14" fill="#FFF7ED"/>
  <rect x="720" y="310" width="20" height="150" rx="10" fill="#FED7AA"/>
  <rect x="772" y="286" width="20" height="174" rx="10" fill="#FED7AA"/>
  <rect x="824" y="268" width="20" height="192" rx="10" fill="#FED7AA"/>
  <rect x="876" y="294" width="20" height="166" rx="10" fill="#FED7AA"/>
  <rect x="928" y="324" width="20" height="136" rx="10" fill="#FED7AA"/>
  <path d="M350 196H616" stroke="#F8FAFC" stroke-width="14" stroke-linecap="round"/>
  <path d="M350 232H560" stroke="#F8FAFC" stroke-width="14" stroke-linecap="round" opacity="0.78"/>
  <path d="M350 268H584" stroke="#F8FAFC" stroke-width="14" stroke-linecap="round" opacity="0.58"/>
  <text x="112" y="188" fill="#F8FAFC" font-family="Segoe UI, Arial, sans-serif" font-size="42" font-weight="700">华音拓影 · 合奏舞台</text>
  <text x="112" y="260" fill="#FDBA74" font-family="Segoe UI, Arial, sans-serif" font-size="28">全编制样板 / 分区站位 / 自由静音 / 校园试点</text>
  <text x="112" y="432" fill="#F8FAFC" font-family="Segoe UI, Arial, sans-serif" font-size="82" font-weight="800">Ensemble Stage</text>
  <text x="112" y="500" fill="#FDBA74" font-family="Segoe UI, Arial, sans-serif" font-size="36">为后续 12 乐器、正式校园地标和组合编制功能预留结构</text>
  <text x="112" y="608" fill="#F8FAFC" font-family="Segoe UI, Arial, sans-serif" font-size="30">适合展厅演示“完整演出 + 分轨聆听”</text>
  <defs>
    <linearGradient id="paint0_linear" x1="72" y1="68" x2="1126" y2="686" gradientUnits="userSpaceOnUse">
      <stop stop-color="#431407"/>
      <stop offset="1" stop-color="#9A3412"/>
    </linearGradient>
  </defs>
</svg>
