<svg width="1200" height="750" viewBox="0 0 1200 750" fill="none" xmlns="http://www.w3.org/2000/svg">
  <rect width="1200" height="750" rx="44" fill="#06253A"/>
  <rect x="32" y="32" width="1136" height="686" rx="32" fill="url(#paint0_linear)"/>
  <circle cx="934" cy="170" r="118" fill="#38BDF8" fill-opacity="0.25"/>
  <circle cx="250" cy="562" r="160" fill="#22D3EE" fill-opacity="0.17"/>
  <rect x="678" y="328" width="316" height="28" rx="14" fill="#E0F2FE"/>
  <rect x="726" y="300" width="24" height="84" rx="12" fill="#F8FAFC"/>
  <rect x="818" y="300" width="24" height="84" rx="12" fill="#F8FAFC"/>
  <rect x="908" y="300" width="24" height="84" rx="12" fill="#F8FAFC"/>
  <circle cx="724" cy="342" r="14" fill="#0EA5E9"/>
  <circle cx="816" cy="342" r="14" fill="#0EA5E9"/>
  <circle cx="906" cy="342" r="14" fill="#0EA5E9"/>
  <path d="M702 302L992 302" stroke="#E0F2FE" stroke-width="20" stroke-linecap="round"/>
  <path d="M350 196H616" stroke="#F8FAFC" stroke-width="14" stroke-linecap="round"/>
  <path d="M350 232H560" stroke="#F8FAFC" stroke-width="14" stroke-linecap="round" opacity="0.78"/>
  <path d="M350 268H584" stroke="#F8FAFC" stroke-width="14" stroke-linecap="round" opacity="0.58"/>
  <text x="112" y="188" fill="#F8FAFC" font-family="Segoe UI, Arial, sans-serif" font-size="42" font-weight="700">华音拓影 · 风影长笛</text>
  <text x="112" y="260" fill="#BAE6FD" font-family="Segoe UI, Arial, sans-serif" font-size="28">木管音色 / 呼吸感 / 色彩性主角</text>
  <text x="112" y="432" fill="#F8FAFC" font-family="Segoe UI, Arial, sans-serif" font-size="82" font-weight="800">Flute Color</text>
  <text x="112" y="500" fill="#7DD3FC" font-family="Segoe UI, Arial, sans-serif" font-size="36">通过静音与独奏对比“音色层次如何进入听觉前景”</text>
  <text x="112" y="608" fill="#F8FAFC" font-family="Segoe UI, Arial, sans-serif" font-size="30">适合文创店 / 展厅 / 课堂中的入门互动点</text>
  <defs>
    <linearGradient id="paint0_linear" x1="72" y1="68" x2="1126" y2="686" gradientUnits="userSpaceOnUse">
      <stop stop-color="#0F172A"/>
      <stop offset="1" stop-color="#0C4A6E"/>
    </linearGradient>
  </defs>
</svg>
